<svg version="1.1" id="Layer_1" xmlns="http://www.w3.org/2000/svg" xmlns:xlink="http://www.w3.org/1999/xlink" x="0px" y="0px"
	 width="100%" viewBox="0 0 256 256" enable-background="new 0 0 256 256" xml:space="preserve">
<path fill="#F8FBF9" opacity="1.000000" stroke="none" 
	d="
M257.000000,114.000000 
	C257.000000,124.354225 257.000000,134.708450 256.801788,145.380096 
	C256.603577,145.697510 256.136536,145.872253 255.777679,145.628998 
	C245.646240,145.385727 235.873672,145.385727 225.593292,145.385727 
	C225.593292,147.772110 225.593307,149.571732 225.593292,151.371353 
	C225.593277,174.367950 225.487122,197.365463 225.686600,220.360336 
	C225.724518,224.730774 224.521667,225.998184 220.077621,225.987534 
	C159.585251,225.842438 99.092438,225.895447 38.599747,225.859100 
	C37.015759,225.858154 35.432045,225.400620 33.923412,224.681915 
	C34.004730,199.409180 34.000324,174.610535 34.032566,149.811935 
	C34.035938,147.219284 34.240211,144.419769 30.644127,144.372543 
	C21.829620,144.256790 13.012011,144.343674 4.196482,144.432236 
	C3.722682,144.436996 3.256556,145.205582 2.749458,145.693863 
	C2.712058,145.769119 2.572137,145.862228 2.306820,145.837433 
	C1.694336,145.875076 1.347167,145.937531 1.000000,146.000000 
	C1.000000,135.312439 1.000000,124.624878 1.276541,113.442802 
	C1.908317,113.033890 2.263552,113.119492 2.642437,113.259018 
	C2.666088,113.312943 2.736543,113.407173 2.916633,113.746658 
	C11.714021,114.266014 20.334314,114.360741 28.947289,114.663605 
	C32.930779,114.803688 34.007877,113.065903 33.985390,109.263496 
	C33.836838,84.142250 33.885513,59.019833 33.915909,33.930782 
	C33.961872,33.963768 33.898743,33.869865 34.373631,33.894012 
	C98.247345,33.927528 161.646164,33.936893 225.260803,34.298607 
	C225.515228,49.975647 225.522003,65.300507 225.603287,80.624977 
	C225.660660,91.439743 225.819107,102.253975 226.068588,113.440567 
	C236.469818,113.875130 246.734909,113.937561 257.000000,114.000000 
M162.519165,117.499847 
	C162.519165,127.778137 162.519165,138.056427 162.519165,148.334717 
	C160.527237,147.167755 159.706055,145.933762 158.920334,144.677612 
	C139.228714,113.196671 119.452667,81.767776 99.957130,50.165844 
	C97.343651,45.929428 94.579704,44.377457 89.631088,44.523270 
	C76.812584,44.900978 63.975559,44.650040 51.145927,44.650063 
	C49.394932,44.650066 47.643940,44.650059 46.033012,44.650059 
	C46.033012,56.347248 46.033012,67.231010 46.033012,78.359818 
	C49.963287,78.359818 53.476841,78.625198 56.932793,78.292397 
	C61.217098,77.879822 62.673332,79.172577 62.642517,83.741226 
	C62.436882,114.231041 62.539722,144.722900 62.524555,175.214096 
	C62.523766,176.797562 62.360016,178.380966 62.242008,180.507278 
	C56.470181,180.507278 51.230064,180.507278 46.031364,180.507278 
	C46.031364,192.144775 46.031364,203.196579 46.031364,214.196671 
	C68.555084,214.196671 90.635078,214.196671 112.825439,214.196671 
	C112.825439,202.818787 112.825439,191.773529 112.825439,180.217102 
	C107.222931,180.217102 101.969170,180.217102 96.539246,180.217102 
	C96.539246,156.685394 96.539246,133.671066 96.539246,109.145744 
	C98.364677,111.941658 99.438293,113.523674 100.449745,115.144485 
	C120.371529,147.068314 140.265610,179.009491 160.265594,210.884216 
	C161.216553,212.399826 163.063263,214.336777 164.542221,214.379807 
	C174.957672,214.682907 185.386078,214.540680 196.304932,214.540680 
	C196.304932,211.843018 196.304932,209.882050 196.304932,207.921082 
	C196.304962,166.766296 196.377213,125.611214 196.205338,84.457161 
	C196.185837,79.786316 197.239075,77.736015 202.214813,78.284058 
	C205.758835,78.674416 209.380508,78.359818 213.022308,78.359818 
	C213.022308,66.761864 213.022308,56.014259 213.022308,44.971992 
	C190.508606,44.971992 168.298691,44.971992 145.962463,44.971992 
	C145.962463,56.178009 145.962463,67.059425 145.962463,78.527176 
	C151.532028,78.527176 156.758972,78.527176 162.518646,78.527176 
	C162.518646,91.573715 162.518646,104.036774 162.519165,117.499847 
z"/>
<path fill="#C9CBCB" opacity="1.000000" stroke="none" 
	d="
M3.000000,1.000000 
	C87.020897,1.000000 171.041794,1.000000 255.524002,1.436415 
	C255.934875,2.159410 255.884430,2.445989 255.433258,2.614562 
	C251.374557,2.527305 247.716599,2.584647 244.058640,2.584888 
	C165.693268,2.590044 87.327911,2.587120 8.962548,2.598356 
	C6.972307,2.598641 4.982086,2.740970 3.009701,2.513767 
	C3.018365,1.806986 3.009182,1.403493 3.000000,1.000000 
z"/>
<path fill="#616769" opacity="1.000000" stroke="none" 
	d="
M257.000000,256.000000 
	C255.503143,256.333344 254.006470,256.957489 252.509415,256.958344 
	C169.652069,257.005249 86.794693,257.000000 3.468625,256.743896 
	C3.011924,256.317444 3.023913,256.147156 3.501598,255.985565 
	C87.972168,255.996124 171.977051,255.997955 256.236450,256.001740 
	C256.660645,256.002441 256.830322,256.001221 257.000000,256.000000 
z"/>
<path fill="#919596" opacity="1.000000" stroke="none" 
	d="
M2.500000,1.000000 
	C3.009182,1.403493 3.018365,1.806986 2.980855,2.995190 
	C2.928158,22.937992 2.958551,42.096184 2.905369,61.254147 
	C2.857297,78.571266 2.717907,95.888123 2.618786,113.205093 
	C2.263552,113.119492 1.908317,113.033890 1.276541,112.974144 
	C1.000000,76.992653 0.989345,40.985291 1.042170,4.978020 
	C1.044116,3.651547 1.666667,2.325986 2.500000,1.000000 
z"/>
<path fill="#AAADAE" opacity="1.000000" stroke="none" 
	d="
M3.035903,255.976837 
	C3.023913,256.147156 3.011924,256.317444 2.999967,256.743896 
	C0.532504,257.623322 1.006674,255.848373 1.005533,254.517487 
	C0.995852,243.228210 1.000000,231.938934 1.000000,220.649658 
	C1.000000,196.078873 1.000000,171.508102 1.000000,146.468658 
	C1.347167,145.937531 1.694336,145.875076 2.381701,146.309784 
	C2.742218,171.237854 2.739065,195.668823 2.792900,220.099686 
	C2.819252,232.058853 2.951554,244.017792 3.035903,255.976837 
z"/>
<path fill="#8D9293" opacity="1.000000" stroke="none" 
	d="
M257.000000,3.000000 
	C257.000000,39.354229 257.000000,75.708458 256.729980,112.522354 
	C256.279907,112.977737 256.099854,112.973465 255.950272,112.503632 
	C255.931931,75.696762 255.883118,39.355453 256.125702,3.008933 
	C256.611420,3.002484 256.805695,3.001242 257.000000,3.000000 
z"/>
<path fill="#8A8F90" opacity="1.000000" stroke="none" 
	d="
M257.000000,255.531342 
	C256.830322,256.001221 256.660645,256.002441 256.239716,255.533112 
	C256.037811,218.665787 256.087158,182.269012 256.136536,145.872253 
	C256.136536,145.872253 256.603577,145.697510 256.801788,145.848755 
	C257.000000,182.354233 257.000000,218.708450 257.000000,255.531342 
z"/>
<path fill="#919596" opacity="1.000000" stroke="none" 
	d="
M255.919815,112.969193 
	C256.099854,112.973465 256.279907,112.977737 256.729980,112.991013 
	C257.000000,113.000000 257.000000,113.500000 257.000000,113.750000 
	C246.734909,113.937561 236.469818,113.875130 226.541412,113.472931 
	C236.558655,113.078499 246.239243,113.023849 255.919815,112.969193 
z"/>
<path fill="#919596" opacity="1.000000" stroke="none" 
	d="
M257.000000,2.500000 
	C256.805695,3.001242 256.611420,3.002484 256.082886,2.938713 
	C255.748627,2.873700 255.834000,2.732568 255.834000,2.732568 
	C255.884430,2.445989 255.934875,2.159410 255.992661,1.436416 
	C256.333344,1.333334 256.666656,1.666667 257.000000,2.500000 
z"/>
<path fill="#0EBF66" opacity="1.000000" stroke="none" 
	d="
M162.518906,116.999840 
	C162.518646,104.036774 162.518646,91.573715 162.518646,78.527176 
	C156.758972,78.527176 151.532028,78.527176 145.962463,78.527176 
	C145.962463,67.059425 145.962463,56.178009 145.962463,44.971992 
	C168.298691,44.971992 190.508606,44.971992 213.022308,44.971992 
	C213.022308,56.014259 213.022308,66.761864 213.022308,78.359818 
	C209.380508,78.359818 205.758835,78.674416 202.214813,78.284058 
	C197.239075,77.736015 196.185837,79.786316 196.205338,84.457161 
	C196.377213,125.611214 196.304962,166.766296 196.304932,207.921082 
	C196.304932,209.882050 196.304932,211.843018 196.304932,214.540680 
	C185.386078,214.540680 174.957672,214.682907 164.542221,214.379807 
	C163.063263,214.336777 161.216553,212.399826 160.265594,210.884216 
	C140.265610,179.009491 120.371529,147.068314 100.449745,115.144485 
	C99.438293,113.523674 98.364677,111.941658 96.539246,109.145744 
	C96.539246,133.671066 96.539246,156.685394 96.539246,180.217102 
	C101.969170,180.217102 107.222931,180.217102 112.825439,180.217102 
	C112.825439,191.773529 112.825439,202.818787 112.825439,214.196671 
	C90.635078,214.196671 68.555084,214.196671 46.031364,214.196671 
	C46.031364,203.196579 46.031364,192.144775 46.031364,180.507278 
	C51.230064,180.507278 56.470181,180.507278 62.242008,180.507278 
	C62.360016,178.380966 62.523766,176.797562 62.524555,175.214096 
	C62.539722,144.722900 62.436882,114.231041 62.642517,83.741226 
	C62.673332,79.172577 61.217098,77.879822 56.932793,78.292397 
	C53.476841,78.625198 49.963287,78.359818 46.033012,78.359818 
	C46.033012,67.231010 46.033012,56.347248 46.033012,44.650059 
	C47.643940,44.650059 49.394932,44.650066 51.145927,44.650063 
	C63.975559,44.650040 76.812584,44.900978 89.631088,44.523270 
	C94.579704,44.377457 97.343651,45.929428 99.957130,50.165844 
	C119.452667,81.767776 139.228714,113.196671 158.920334,144.677612 
	C159.706055,145.933762 160.527237,147.167755 162.519165,148.334717 
	C162.519165,138.056427 162.519165,127.778137 162.518906,116.999840 
z"/>
<path fill="#353D3F" opacity="1.000000" stroke="none" 
	d="
M255.777649,145.628998 
	C256.087158,182.269012 256.037811,218.665787 255.985184,255.531174 
	C171.977051,255.997955 87.972168,255.996124 3.501598,255.985565 
	C2.951554,244.017792 2.819252,232.058853 2.792900,220.099686 
	C2.739065,195.668823 2.742218,171.237854 2.647018,146.334579 
	C2.572137,145.862228 2.712058,145.769119 3.230219,145.747833 
	C13.174725,145.726532 22.601068,145.726532 32.595558,145.726532 
	C32.595558,148.438965 32.595554,150.390503 32.595558,152.342026 
	C32.595615,174.792877 32.566738,197.243851 32.649940,219.694397 
	C32.656689,221.516403 33.430714,223.335541 33.848206,225.156021 
	C35.432045,225.400620 37.015759,225.858154 38.599747,225.859100 
	C99.092438,225.895447 159.585251,225.842438 220.077621,225.987534 
	C224.521667,225.998184 225.724518,224.730774 225.686600,220.360336 
	C225.487122,197.365463 225.593277,174.367950 225.593292,151.371353 
	C225.593307,149.571732 225.593292,147.772110 225.593292,145.385727 
	C235.873672,145.385727 245.646240,145.385727 255.777649,145.628998 
z"/>
<path fill="#353D3F" opacity="1.000000" stroke="none" 
	d="
M255.433258,2.614562 
	C255.834000,2.732568 255.748627,2.873700 255.791473,2.943920 
	C255.883118,39.355453 255.931931,75.696762 255.950272,112.503632 
	C246.239243,113.023849 236.558655,113.078499 226.405273,113.100800 
	C225.819107,102.253975 225.660660,91.439743 225.603287,80.624977 
	C225.522003,65.300507 225.515228,49.975647 225.144333,33.931000 
	C223.392014,32.935455 221.972153,32.419754 220.551941,32.418816 
	C159.758759,32.378536 98.965515,32.373917 38.172382,32.446026 
	C36.747276,32.447716 35.323265,33.374550 33.898743,33.869865 
	C33.898743,33.869865 33.961872,33.963768 33.546669,34.050549 
	C32.873917,35.900101 32.396233,37.662369 32.392220,39.425716 
	C32.341396,61.743885 32.360111,84.062202 32.357944,106.380486 
	C32.357273,113.286072 32.352890,113.272453 25.217531,113.293739 
	C17.723824,113.316101 10.230202,113.368118 2.736543,113.407173 
	C2.736543,113.407173 2.666088,113.312943 2.642437,113.259018 
	C2.717907,95.888123 2.857297,78.571266 2.905369,61.254147 
	C2.958551,42.096184 2.928158,22.937992 2.963008,3.298476 
	C4.982086,2.740970 6.972307,2.598641 8.962548,2.598356 
	C87.327911,2.587120 165.693268,2.590044 244.058640,2.584888 
	C247.716599,2.584647 251.374557,2.527305 255.433258,2.614562 
z"/>
<path fill="#919596" opacity="1.000000" stroke="none" 
	d="
M34.373631,33.894012 
	C35.323265,33.374550 36.747276,32.447716 38.172382,32.446026 
	C98.965515,32.373917 159.758759,32.378536 220.551941,32.418816 
	C221.972153,32.419754 223.392014,32.935455 224.928528,33.578655 
	C161.646164,33.936893 98.247345,33.927528 34.373631,33.894012 
z"/>
<path fill="#919596" opacity="1.000000" stroke="none" 
	d="
M2.916633,113.746658 
	C10.230202,113.368118 17.723824,113.316101 25.217531,113.293739 
	C32.352890,113.272453 32.357273,113.286072 32.357944,106.380486 
	C32.360111,84.062202 32.341396,61.743885 32.392220,39.425716 
	C32.396233,37.662369 32.873917,35.900101 33.500702,34.017563 
	C33.885513,59.019833 33.836838,84.142250 33.985390,109.263496 
	C34.007877,113.065903 32.930779,114.803688 28.947289,114.663605 
	C20.334314,114.360741 11.714021,114.266014 2.916633,113.746658 
z"/>
<path fill="#AAADAE" opacity="1.000000" stroke="none" 
	d="
M33.923416,224.681915 
	C33.430714,223.335541 32.656689,221.516403 32.649940,219.694397 
	C32.566738,197.243851 32.595615,174.792877 32.595558,152.342026 
	C32.595554,150.390503 32.595558,148.438965 32.595558,145.726532 
	C22.601068,145.726532 13.174725,145.726532 3.267619,145.672577 
	C3.256556,145.205582 3.722682,144.436996 4.196482,144.432236 
	C13.012011,144.343674 21.829620,144.256790 30.644127,144.372543 
	C34.240211,144.419769 34.035938,147.219284 34.032566,149.811935 
	C34.000324,174.610535 34.004730,199.409180 33.923416,224.681915 
z"/>
</svg>